<svg xmlns="http://www.w3.org/2000/svg" width="1200" height="540" viewBox="0 0 1200 540"><rect width="1200" height="540" fill="#09111f"/><text x="55" y="75" fill="#55d6be" font-family="Arial" font-size="18">AGENTIC AI CONTROL PLANE</text><text x="55" y="125" fill="#eaf1ff" font-family="Arial" font-size="48" font-weight="bold">TrustMesh</text><g fill="#111d31" stroke="#263755"><rect x="55" y="165" width="320" height="95" rx="14"/><rect x="400" y="165" width="320" height="95" rx="14"/><rect x="745" y="165" width="320" height="95" rx="14"/><rect x="55" y="290" width="1010" height="190" rx="14"/></g><g fill="#9eb1d1" font-family="Arial" font-size="17"><text x="80" y="200">RUNS</text><text x="425" y="200">PENDING APPROVALS</text><text x="770" y="200">BLOCKED ACTIONS</text><text x="80" y="330">IMMUTABLE AUDIT TIMELINE</text></g><g fill="#55d6be" font-family="Arial" font-size="36" font-weight="bold"><text x="80" y="242">12</text><text x="425" y="242">1</text><text x="770" y="242">3</text></g><path d="M95 385h190m20 0h240m20 0h310" stroke="#55d6be" stroke-width="4"/><g fill="#55d6be"><circle cx="95" cy="385" r="9"/><circle cx="305" cy="385" r="9"/><circle cx="565" cy="385" r="9"/></g><g fill="#eaf1ff" font-family="Arial" font-size="15"><text x="80" y="420">policy.decided</text><text x="280" y="420">approval.requested</text><text x="535" y="420">tool.executed</text></g></svg>
